<?xml version="1.0" encoding="utf-8"?>
<!-- Generator: Adobe Illustrator 21.1.0, SVG Export Plug-In . SVG Version: 6.00 Build 0)  -->
<svg version="1.1" id="Слой_1" xmlns="http://www.w3.org/2000/svg" xmlns:xlink="http://www.w3.org/1999/xlink" x="0px" y="0px"
	 viewBox="0 0 50 50" style="enable-background:new 0 0 50 50;" xml:space="preserve">
<style type="text/css">
	.st0{fill:#37B34A;}
	.st1{fill:#169734;}
</style>
<image style="overflow:visible;" width="240" height="432" xlink:href="D96B88E1.jpg"  transform="matrix(0.8519 0 0 0.8519 -120.0177 -382.5365)">
</image>
<path class="st0" d="M138.9-14.7l-3.9,3.9c-1.2,1.2-3.1,1.2-4.2,0L116-25.6c-1.2-1.2-1.2-3.1,0-4.2l3.9-3.9c1.2-1.2,3.1-1.2,4.2,0
	l14.9,14.9C140.1-17.7,140.1-15.8,138.9-14.7z"/>
<path class="st1" d="M43.5,27L41,29.5c-1.2,1.2-3.1,1.2-4.2,0L19,11.7c-1.2-1.2-1.2-3.1,0-4.2L21.4,5c1.2-1.2,3.1-1.2,4.2,0
	l17.8,17.8C44.6,24,44.6,25.9,43.5,27z"/>
<path class="st1" d="M40.8,20.4l2.7,2.7c1.2,1.2,1.2,3.1,0,4.2L25.8,45c-1.2,1.2-3.1,1.2-4.2,0l-2.7-2.7c-1.2-1.2-1.2-3.1,0-4.2
	l17.7-17.7C37.7,19.2,39.6,19.2,40.8,20.4z"/>
<path class="st1" d="M35.9,22.9v4.2c0,1.7-1.3,3-3,3H8.6c-1.7,0-3-1.3-3-3v-4.2c0-1.7,1.3-3,3-3h24.3C34.6,19.9,35.9,21.2,35.9,22.9
	z"/>
<path class="st0" d="M158.2-45.9L162-42c1.2,1.2,1.2,3.1,0,4.2l-26.5,26.5c-1.2,1.2-3.1,1.2-4.2,0l-3.9-3.9c-1.2-1.2-1.2-3.1,0-4.2
	l26.5-26.5C155.1-47,157-47,158.2-45.9z"/>
</svg>
