<?xml version="1.0" encoding="utf-8"?>
<!-- Generator: Adobe Illustrator 21.1.0, SVG Export Plug-In . SVG Version: 6.00 Build 0)  -->
<svg version="1.1" id="Слой_1" xmlns="http://www.w3.org/2000/svg" xmlns:xlink="http://www.w3.org/1999/xlink" x="0px" y="0px"
	 viewBox="0 0 50 50" style="enable-background:new 0 0 50 50;" xml:space="preserve">
<style type="text/css">
	.st0{fill:#169734;}
</style>
<image style="overflow:visible;" width="240" height="432" xlink:href="1D0FFA62.jpg"  transform="matrix(1 0 0 1 212.8333 -16)">
</image>
<path class="st0" d="M24.9,38.7l-3.9,3.9c-1.2,1.2-3.1,1.2-4.2,0L2,27.7c-1.2-1.2-1.2-3.1,0-4.2l3.9-3.9c1.2-1.2,3.1-1.2,4.2,0
	l14.9,14.9C26.1,35.6,26.1,37.5,24.9,38.7z"/>
<path class="st0" d="M44.2,7.5l3.9,3.9c1.2,1.2,1.2,3.1,0,4.2L21.6,42c-1.2,1.2-3.1,1.2-4.2,0l-3.9-3.9c-1.2-1.2-1.2-3.1,0-4.2
	L39.9,7.5C41.1,6.3,43,6.3,44.2,7.5z"/>
</svg>
